<?xml version="1.0" encoding="iso-8859-1"?>
<!-- Generator: Adobe Illustrator 19.0.0, SVG Export Plug-In . SVG Version: 6.00 Build 0)  -->
<svg version="1.1" id="Layer_1" xmlns="http://www.w3.org/2000/svg" xmlns:xlink="http://www.w3.org/1999/xlink" x="0px" y="0px"
	 viewBox="0 0 512 512" style="enable-background:new 0 0 512 512;" xml:space="preserve">
<path style="fill:#5B7A7F;" d="M478.297,486.057c2.089,12.391-6.555,24.104-19.199,25.754c-12.043,1.571-23.069-7.017-25.076-18.922
	l-16.532-98.042c-3.763-22.321-23.205-38.673-45.979-38.673l0,0c-22.774,0-42.216,16.352-45.98,38.673l-16.62,98.568
	c-2.089,12.392-14.103,20.665-26.597,18.128c-11.901-2.416-19.507-14.107-17.499-26.012l33.073-196.139h45.427h56.396h45.427h9.687
	v57.446L478.297,486.057z"/>
<path style="fill:#90B5BF;" d="M477.223,189.217v111.304H275.615V189.217c0-36.883,29.9-66.783,66.783-66.783h68.043
	C447.324,122.435,477.223,152.334,477.223,189.217z"/>
<path style="fill:#769CA5;" d="M376.419,300.522H275.615V189.217c0-36.883,30.088-66.783,67.202-66.783h33.602V300.522z"/>
<path style="fill:#7F5D3B;" d="M370.82,378.435v77.913c0,12.295-9.966,22.261-22.261,22.261H247.474
	c-12.295,0-22.261-9.966-22.261-22.261v-77.913c0-12.295,9.966-22.261,22.261-22.261h101.084
	C360.852,356.174,370.82,366.14,370.82,378.435z"/>
<path style="fill:#B28D5B;" d="M382.019,356.174v33.391c0,12.295-9.966,22.261-22.261,22.261H236.274
	c-12.295,0-22.261-9.966-22.261-22.261v-33.391c0-12.295,9.966-22.261,22.261-22.261h123.484
	C372.053,333.913,382.019,343.879,382.019,356.174z"/>
<path style="fill:#FFE77C;" d="M309.322,434.087H286.71c-9.22,0-16.696-7.475-16.696-16.696l0,0c0-9.22,7.475-16.696,16.696-16.696
	h22.611c9.22,0,16.696,7.475,16.696,16.696l0,0C326.017,426.612,318.542,434.087,309.322,434.087z"/>
<path style="fill:#F4C064;" d="M421.222,44.522c0,24.588-20.058,44.522-44.802,44.522c-24.743,0-44.801-19.933-44.801-44.522
	S351.676,0,376.419,0S421.222,19.933,421.222,44.522z M309.287,211.478h-33.671v122.435c0,12.295,9.966,22.261,22.261,22.261h0.279
	c12.295,0,22.261-9.966,22.261-22.261V222.609C320.418,216.461,315.433,211.478,309.287,211.478z M443.551,211.478
	c-6.147,0-11.13,4.983-11.13,11.13v111.304c0,12.295,9.966,22.261,22.261,22.261h0.28c12.295,0,22.261-9.966,22.261-22.261V211.478
	H443.551z"/>
<path style="fill:#F4AB53;" d="M376.419,0v89.043c-24.743,0-44.802-19.933-44.802-44.522S351.676,0,376.419,0z"/>
<path style="fill:#C1C1C1;" d="M240.6,222.609c0,4.61-3.761,8.348-8.4,8.348H41.792c-4.639,0-8.4-3.738-8.4-8.348
	c0-4.61,3.761-8.348,8.4-8.348h190.407C236.838,214.261,240.6,217.998,240.6,222.609z M97.794,175.304H232.2
	c4.639,0,8.4-3.738,8.4-8.348s-3.761-8.348-8.4-8.348H97.794c-4.639,0-8.4,3.738-8.4,8.348S93.154,175.304,97.794,175.304z
	 M232.199,269.913H97.794c-4.639,0-8.4,3.738-8.4,8.348s3.761,8.348,8.4,8.348H232.2c4.639,0,8.4-3.738,8.4-8.348
	S236.838,269.913,232.199,269.913z"/>
<g>
</g>
<g>
</g>
<g>
</g>
<g>
</g>
<g>
</g>
<g>
</g>
<g>
</g>
<g>
</g>
<g>
</g>
<g>
</g>
<g>
</g>
<g>
</g>
<g>
</g>
<g>
</g>
<g>
</g>
</svg>
