<?xml version="1.0" encoding="iso-8859-1"?>
<!-- Generator: Adobe Illustrator 19.0.0, SVG Export Plug-In . SVG Version: 6.00 Build 0)  -->
<svg version="1.1" id="Layer_1" xmlns="http://www.w3.org/2000/svg" xmlns:xlink="http://www.w3.org/1999/xlink" x="0px" y="0px"
	 viewBox="0 0 392.598 392.598" style="enable-background:new 0 0 392.598 392.598;" xml:space="preserve">
<path style="fill:#FFFFFF;" d="M104.307,370.812h24.178v-58.117c0-6.012,4.848-10.925,10.925-10.925s10.925,4.848,10.925,10.925
	v58.117h24.178v-94.966h-70.206V370.812z"/>
<path style="fill:#FFC10D;" d="M112.646,48.679c0,14.739,11.96,26.764,26.764,26.764s26.764-12.024,26.764-26.764
	s-11.96-26.764-26.764-26.764S112.646,33.875,112.646,48.679z"/>
<path style="fill:#56ACE0;" d="M191.515,153.923c0-10.537-8.145-19.071-18.36-19.911l-23.855,52.17
	c-3.879,8.469-15.903,8.469-19.846,0l-23.855-52.17c-10.279,0.84-18.36,9.438-18.36,19.911v26.764h21.527
	c6.012,0,10.925,4.848,10.925,10.925c0,6.012-4.848,10.925-10.925,10.925H87.24v13.382h9.503c6.012,0,10.925,4.848,10.925,10.925
	c0,6.012-4.848,10.925-10.925,10.925H87.24v16.356H191.58V153.923H191.515z"/>
<rect x="257.584" y="262.465" style="fill:#FFC10D;" width="47.709" height="108.347"/>
<g>
	<path style="fill:#194F82;" d="M139.345,97.164c26.828,0,48.549-21.786,48.549-48.549C187.895,21.786,166.109,0,139.345,0
		S90.796,21.786,90.796,48.614C90.861,75.378,112.646,97.164,139.345,97.164z M139.345,21.915c14.739,0,26.764,11.96,26.764,26.764
		c0,14.739-11.96,26.764-26.764,26.764c-14.739,0-26.764-11.96-26.764-26.764C112.646,33.875,124.606,21.915,139.345,21.915z"/>
	<path style="fill:#194F82;" d="M171.604,112.097h-5.301c-4.267,0-8.145,2.457-9.891,6.335l-16.937,36.913l-16.937-36.913
		c-1.745-3.879-5.624-6.335-9.891-6.335h-5.301c-23.079,0-41.826,18.683-41.826,41.826v110.933c0,6.012,4.848,10.925,10.925,10.925
		h6.206v105.891c0,6.012,4.848,10.925,10.925,10.925h91.863c6.012,0,10.925-4.848,10.925-10.925V275.782h6.206
		c6.012,0,10.925-4.848,10.925-10.925V153.923C213.366,130.909,194.618,112.097,171.604,112.097z M150.271,370.812v-58.117
		c0-6.012-4.848-10.925-10.925-10.925c-6.012,0-10.925,4.848-10.925,10.925v58.117h-24.178v-94.966h70.077v94.966H150.271z
		 M191.58,254.061H87.305v-16.356h9.374c6.012,0,10.925-4.848,10.925-10.925c0-6.012-4.848-10.925-10.925-10.925h-9.503v-13.382
		h21.527c6.012,0,10.925-4.848,10.925-10.925c0-6.012-4.848-10.925-10.925-10.925H87.176v-26.764
		c0-10.537,8.145-19.071,18.36-19.911l23.855,52.17c3.879,8.469,15.903,8.469,19.846,0l23.855-52.17
		c10.279,0.84,18.36,9.438,18.36,19.911v100.202H191.58z"/>
	<path style="fill:#194F82;" d="M305.293,240.679h-12.929v-27.281c0-6.012-4.848-10.925-10.925-10.925
		c-6.012,0-10.925,4.848-10.925,10.925v27.281h-12.929c-12.024,0-21.786,9.826-21.786,21.786v108.347
		c0,12.024,9.826,21.786,21.786,21.786h47.709c12.024,0,21.786-9.826,21.786-21.786V262.465
		C327.079,250.44,317.317,240.679,305.293,240.679z M305.293,370.812h-47.709V262.465h47.709V370.812z"/>
</g>
<g>
</g>
<g>
</g>
<g>
</g>
<g>
</g>
<g>
</g>
<g>
</g>
<g>
</g>
<g>
</g>
<g>
</g>
<g>
</g>
<g>
</g>
<g>
</g>
<g>
</g>
<g>
</g>
<g>
</g>
</svg>
